<?xml version="1.0" encoding="UTF-8"?>
<svg width="10px" height="10px" viewBox="0 0 10 10" version="1.1" xmlns="http://www.w3.org/2000/svg" xmlns:xlink="http://www.w3.org/1999/xlink">
    <!-- Generator: Sketch 42 (36781) - http://www.bohemiancoding.com/sketch -->
    <title>Fill 12</title>
    <desc>Created with Sketch.</desc>
    <defs></defs>
    <g id="Page-2" stroke="none" stroke-width="1" fill="none" fill-rule="evenodd">
        <g id="home-4" transform="translate(-143.000000, -935.000000)" fill="#3AB500">
            <g id="Footer" transform="translate(0.000000, 849.000000)">
                <g id="Group-11" transform="translate(135.000000, 28.000000)">
                    <g id="Group-12">
                        <path d="M18,58.0366361 C17.2530628,58.4676834 16.6288547,58.9258769 16.0718532,59.4928553 C15.1287175,60.4528562 14.4081395,61.5757349 13.9685392,62.8766614 C13.3219912,64.7904754 12.0635735,66.0826192 10.4375292,67.0299452 C9.77359536,67.41678 9.07900261,67.7293616 8.35234886,67.9576101 C8.07417526,68.0450371 8.01351173,68.0131003 8.00537964,67.7103991 C7.90844886,64.1290838 9.11508292,61.2898006 12.137884,59.5014383 C13.5115531,58.6886462 15.0101012,58.3089973 16.5563202,58.1130848 C16.8664613,58.0737626 17.177911,58.0454187 17.4889869,58.0146795 C17.6319995,58.0005075 17.7760403,57.9824433 18,58.0366361" id="Fill-12"></path>
                    </g>
                </g>
            </g>
        </g>
    </g>
</svg>