<svg xmlns="http://www.w3.org/2000/svg" width="90" height="37" viewBox="0 0 90 37">
  <defs>
    <linearGradient id="logo-a" x1="50%" x2="38.94%" y1="34.753%" y2="132.826%">
      <stop offset="0%" stop-color="#FFF" stop-opacity="0"/>
      <stop offset="100%" stop-color="#FFF"/>
    </linearGradient>
  </defs>
  <g fill="none" fill-rule="evenodd">
    <path fill="#34B0D1" d="M0 .67718371C2.46224863.674672398 4.92466179.678020814 7.38691042.663120362 7.75628885.660943891 7.98005484.800740271 8.17601463 1.11113846 10.2881353 4.4567086 11.7788117 8.07299819 12.7451188 11.9188217 13.1625411 13.5804733 13.4728519 15.2612109 13.6480804 16.9700751 13.6987569 17.4626271 13.5008227 17.5605683 13.1034735 17.6052697 11.6720293 17.7659937 10.2425594 17.9446317 8.81276051 18.1195864 8.67076782 18.1369982 8.53124314 18.1760072 8.39402194 18.2449846 9.72312614 18.3221656 11.0515722 18.415419 12.3816636 18.4720072 13.5416271 18.5215638 13.5603839 18.5039846 13.5217185 19.647971 13.3285558 25.3648896 11.7975686 30.6808353 8.90210238 35.5902833 8.63868373 36.0366271 8.33857404 36.2204552 7.81436929 36.2137584 5.56305302 36.1846271 3.31107861 36.2032109 1.05926874 36.197686.892595978 36.1971837.66488117 36.28441.575703839 36.0843421.503473492 35.9224462.679195612 35.787505.766727605 35.6560796 3.09109689 32.1735593 4.85160878 28.4348851 5.75473492 24.3059529 6.98758684 18.6697312 6.40892139 13.2066226 4.22572212 7.90122443 3.16184644 5.31591222 1.78535649 2.91978552 0 .776129412L0 .67718371zM52.4013236 14.7448014C52.4013236 17.5129371 52.4000073 20.2812403 52.4016527 23.049376 52.4039561 27.2861271 52.4036271 31.5228783 52.4185996 35.7596294 52.420245 36.2063081 52.243042 36.3168059 51.8384534 36.3141271 49.7324205 36.3000638 47.625894 36.2928647 45.5200256 36.3181452 45.0101353 36.3243398 44.8966069 36.1309688 44.8979232 35.6526475 44.9125667 30.6246656 44.9099342 25.5963489 44.9092761 20.568367 44.9086179 14.2212765 44.9048336 7.87418597 44.9030238 1.5272629 44.9028592.769348869 44.9046691.768009502 45.6572468.767842081 47.9901718.767172398 50.323426.782072851 52.6561865.756290045 53.1627861.750765158 53.3829324.898765158 53.5329872 1.41358416 55.4573748 8.01816787 57.4087459 14.614548 59.3543583 21.2126023 59.3678501 21.2588104 59.3948336 21.3010005 59.4966801 21.3508919L59.4966801 20.8559959C59.4956929 14.4101271 59.4947057 7.96425837 59.4942121 1.51822217 59.4942121.770018552 59.4956929.768176923 60.2120731.768009502 62.2695686.767004977 64.3272285.778389593 66.3847239.759638462 66.8434442.755452941 67.0048519.898932579 67.0043583 1.37892805 66.9923473 12.8201317 66.9915247 24.2611679 66.9966252 35.7022041 66.9967898 36.1286249 66.8919817 36.3216611 66.4245411 36.322833 64.0443949 36.3281905 61.6640841 36.3507923 59.2844314 36.4013534 58.761543 36.4125706 58.5540658 36.218195 58.4148702 35.7201181 56.4743583 28.7770095 54.5144314 21.8397606 52.5581243 14.9013398 52.5411773 14.8412357 52.5094223 14.785652 52.4847422 14.7278919 52.456936 14.7334167 52.4291298 14.739109 52.4013236 14.7448014M83.1069543 33.7483697C82.3425302 34.984605 81.3844497 35.7748312 80.1989835 36.2437769 78.2907203 36.9986774 76.323883 37.0733471 74.3943949 36.4142113 72.7903547 35.8660756 71.8284899 34.5613652 71.18434 33.0251118 70.4225484 31.2084285 70.1768995 29.2951434 70.1823291 27.3264421 70.1976307 21.7051208 70.1867715 16.0836321 70.16966 10.4623109 70.1648885 8.87934706 70.3616709 7.33924299 70.933755 5.86208914 71.9232614 3.30741493 73.7084534 1.57762308 76.2817623.785220362 79.2715064-.135426697 82.2714516-.0249289593 85.1934077 1.10114344 87.9516527 2.16409819 89.4350896 4.29821131 89.8380329 7.22891267 90.0792395 8.9826457 89.9030238 10.7517814 89.9489287 12.5132158 89.9574845 12.8415281 89.7936088 12.9436548 89.500245 12.9431525 87.3616344 12.9399715 85.2231883 12.9376276 83.0847422 12.9451615 82.7171737 12.9465009 82.6210859 12.7705416 82.6149982 12.4271615 82.5931152 11.2088403 82.7007203 9.98717059 82.5521463 8.77203032 82.3681974 7.26691719 81.6659671 6.60309367 80.2473565 6.57312534 79.1066435 6.54901674 78.2324753 7.36703484 77.9942303 8.68279502 77.9206837 9.0887905 77.8834991 9.49696244 77.8834991 9.91116154 77.8854735 15.7305416 77.8844863 21.5497543 77.8798793 27.368967 77.8795503 27.8327226 77.9113053 28.2916231 78.0037733 28.7444964 78.2535356 29.9656638 79.0283254 30.5137995 80.3997148 30.4488403 81.5646143 30.3937588 82.3695137 29.6919308 82.4157477 28.5271842 82.4790932 26.9308267 82.4387824 25.3301163 82.4458574 23.7312475 82.4471737 23.4288855 82.2872468 23.3304421 82.015766 23.3321163 81.4324936 23.3357995 80.8492212 23.3240801 80.2661133 23.3319489 79.9442852 23.3361344 79.7955466 23.2107362 79.7970274 22.8661842 79.8054186 20.954071 79.8044314 19.0416231 79.79966 17.12951 79.7988373 16.8154285 79.9268446 16.6870167 80.2353455 16.687519 83.3297331 16.6920394 86.4241207 16.6922068 89.5183437 16.6873516 89.8298062 16.6868493 89.9658757 16.8194466 89.9476124 17.1320213 89.9408665 17.2468719 89.9484351 17.3627271 89.9484351 17.4780801 89.9461316 23.4951842 89.9439927 29.5121208 89.9410311 35.5292249 89.940702 36.2985235 89.9387276 36.2993606 89.1953638 36.2995281 87.364596 36.2998629 85.5338282 36.2868041 83.7033894 36.3080665 83.2285448 36.3135914 83.0756929 36.1396412 83.0997148 35.6735416 83.1298245 35.0874014 83.1069543 34.4984149 83.1069543 33.7483697M41.2453218 18.4836932C41.2454863 24.137829 41.2456508 29.7919647 41.2453218 35.4461005 41.2451572 36.2132226 41.243841 36.2142271 40.4965283 36.2143946 38.4553218 36.2148968 36.4141152 36.2147294 34.3729086 36.214562 33.5372413 36.2143946 33.5370768 36.2140597 33.5369122 35.3856615 33.535925 26.6323991 33.5349378 17.8791367 33.5341152 9.12587421 33.5339506 6.5542905 33.5448099 3.98253937 33.5249013 1.41112308 33.521117.915222624 33.6713364.752991855 34.163128.75801448 36.3175338.780448869 38.4724333.781285973 40.6268391.757679638 41.1314644.752154751 41.2547002.939498643 41.2535484 1.42217285 41.2405503 7.1092905 41.2451572 12.7965756 41.2453218 18.4836932"/>
    <path fill="#3AB500" d="M31.8489598 36.265776C31.2474241 36.3804593 30.6769854 36.2642692 30.108521 36.206509 27.0857057 35.8996267 24.1704954 35.207509 21.5071865 33.6501606 17.7360713 31.4450611 15.5311536 28.1135543 14.6691609 23.8093326 14.3726709 22.3281606 14.3379543 20.8359389 14.377936 19.3348439 14.3881371 18.9542964 14.5294717 18.8389434 14.8952303 18.959319 18.0868574 20.0093824 20.908777 21.6358756 23.0365283 24.3474231 23.9065832 25.4560837 24.4451024 26.7371878 24.9413364 28.0511063 26.1304223 31.1991199 28.0645174 33.7588167 30.8581371 35.6141742 31.0206965 35.7221606 31.1957605 35.810224 31.3578263 35.9187127 31.5134753 36.022681 31.723585 36.0461199 31.8489598 36.265776M31.891755.735195023C30.5769653 1.45828552 29.4782084 2.22691448 28.4977514 3.17803213 26.8376051 4.78845294 25.5692139 6.67210452 24.7954113 8.85443484 23.6573309 12.0648964 21.4422121 14.2324937 18.5799817 15.821652 17.411298 16.4705751 16.1886472 16.9949371 14.9095612 17.3778285 14.4199086 17.5244891 14.3131261 17.4709145 14.2988117 16.9631271 14.1281901 10.9553986 16.2521572 6.19244389 21.5730165 3.19243032 23.9910055 1.8289552 26.6288117 1.19208643 29.3505302.863439367 29.8964534.797475566 30.4446801.749928054 30.9922486.698362443 31.2439854.674588688 31.497532.64428552 31.891755.735195023"/>
    <path fill="url(#logo-a)" d="M52.4015422,22.8554566 C52.4000681,20.1519531 52.4013236,17.4482974 52.4013236,14.7448014 C52.4291298,14.739109 52.456936,14.7334167 52.4847422,14.7278919 C52.5094223,14.785652 52.5411773,14.8412357 52.5581243,14.9013398 C53.358857,17.7412927 54.160196,20.5810493 54.960562,23.4210917 C59.238011,24.4188285 63.287693,25.6231603 66.993957,26.8896717 C66.9926847,18.3861371 66.9954312,9.88257884 67.0043583,1.37892805 C67.0048519,0.898932579 66.8434442,0.755452941 66.3847239,0.759638462 C64.3272285,0.778389593 62.2695686,0.767004977 60.2120731,0.768009502 C59.4956929,0.768176923 59.4942121,0.770018552 59.4942121,1.51822217 C59.4947057,7.96425837 59.4956929,14.4101271 59.4966801,20.8559959 L59.4966801,21.3508919 C59.3948336,21.3010005 59.3678501,21.2588104 59.3543583,21.2126023 C57.4087459,14.614548 55.4573748,8.01816787 53.5329872,1.41358416 C53.3829324,0.898765158 53.1627861,0.750765158 52.6561865,0.756290045 C50.323426,0.782072851 47.9901718,0.767172398 45.6572468,0.767842081 C44.9046691,0.768009502 44.9028592,0.769348869 44.9030238,1.5272629 C44.9048336,7.87418597 44.9086179,14.2212765 44.9092761,20.568367 C44.9093199,20.9034501 44.9093725,21.2385347 44.9094282,21.5736205 C47.4574125,21.9105214 49.9615274,22.3462209 52.4015422,22.8554566 Z M70.1915027,28.0268027 C70.184592,27.7941801 70.181683,27.5607034 70.1823291,27.3264421 C70.1976307,21.7051208 70.1867715,16.0836321 70.16966,10.4623109 C70.1648885,8.87934706 70.3616709,7.33924299 70.933755,5.86208914 C71.9232614,3.30741493 73.7084534,1.57762308 76.2817623,0.785220362 C79.2715064,-0.135426697 82.2714516,-0.0249289593 85.1934077,1.10114344 C87.9516527,2.16409819 89.4350896,4.29821131 89.8380329,7.22891267 C90.0792395,8.9826457 89.9030238,10.7517814 89.9489287,12.5132158 C89.9574845,12.8415281 89.7936088,12.9436548 89.500245,12.9431525 C87.3616344,12.9399715 85.2231883,12.9376276 83.0847422,12.9451615 C82.7171737,12.9465009 82.6210859,12.7705416 82.6149982,12.4271615 C82.5931152,11.2088403 82.7007203,9.98717059 82.5521463,8.77203032 C82.3681974,7.26691719 81.6659671,6.60309367 80.2473565,6.57312534 C79.1066435,6.54901674 78.2324753,7.36703484 77.9942303,8.68279502 C77.9206837,9.0887905 77.8834991,9.49696244 77.8834991,9.91116154 C77.8854735,15.7305416 77.8844863,21.5497543 77.8798793,27.368967 C77.8795503,27.8327226 77.9113053,28.2916231 78.0037733,28.7444964 C78.2535356,29.9656638 79.0283254,30.5137995 80.3997148,30.4488403 C81.5646143,30.3937588 82.3695137,29.6919308 82.4157477,28.5271842 C82.4790932,26.9308267 82.4387824,25.3301163 82.4458574,23.7312475 C82.4471737,23.4288855 82.2872468,23.3304421 82.015766,23.3321163 C81.4324936,23.3357995 80.8492212,23.3240801 80.2661133,23.3319489 C79.9442852,23.3361344 79.7955466,23.2107362 79.7970274,22.8661842 C79.8054186,20.954071 79.8044314,19.0416231 79.79966,17.12951 C79.7988373,16.8154285 79.9268446,16.6870167 80.2353455,16.687519 C83.3297331,16.6920394 86.4241207,16.6922068 89.5183437,16.6873516 C89.8298062,16.6868493 89.9658757,16.8194466 89.9476124,17.1320213 C89.9408665,17.2468719 89.9484351,17.3627271 89.9484351,17.4780801 C89.9461316,23.4951842 89.9439927,29.5121208 89.9410311,35.5292249 C89.9409113,35.8092617 89.9405735,35.9874716 89.9043363,36.1008889 L88.34375,36.2890625 C88.34375,36.2890625 81.1141252,32.0628934 70.1915027,28.0268027 Z M41.2453978,21.162602 C41.2453737,20.2696324 41.2453477,19.3766628 41.2453218,18.4836932 C41.2451572,12.7965756 41.2405503,7.1092905 41.2535484,1.42217285 C41.2547002,0.939498643 41.1314644,0.752154751 40.6268391,0.757679638 C38.4724333,0.781285973 36.3175338,0.780448869 34.163128,0.75801448 C33.6713364,0.752991855 33.521117,0.915222624 33.5249013,1.41112308 C33.5448099,3.98253937 33.5339506,6.5542905 33.5341152,9.12587421 C33.5344812,13.0200509 33.5348797,16.9142277 33.5352964,20.8084044 C36.125633,20.8031743 38.7020883,20.9292588 41.2453978,21.162602 Z"/>
  </g>
</svg>
