<svg xmlns="http://www.w3.org/2000/svg" width="70" height="70" viewBox="0 0 70 70">
  <g fill="none" fill-rule="evenodd">
    <circle cx="35" cy="35" r="35" fill="#51B200"/>
    <g transform="translate(16 15)">
      <path fill="#FFF" fill-rule="nonzero" d="M0 35L0 14 38 14 38 35C38 37.2 36.2 39 34 39L4 39C1.8 39 0 37.2 0 35zM8 17L8 21 12 21 12 17 8 17zM14 17L14 21 18 21 18 17 14 17zM20 17L20 21 24 21 24 17 20 17zM26 17L26 21 30 21 30 17 26 17zM8 23L8 27 12 27 12 23 8 23zM14 23L14 27 18 27 18 23 14 23zM20 23L20 27 24 27 24 23 20 23zM26 23L26 27 30 27 30 23 26 23zM8 29L8 33 12 33 12 29 8 29zM14 29L14 33 18 33 18 29 14 29zM20 29L20 33 24 33 24 29 20 29zM26 29L26 33 30 33 30 29 26 29zM38 7L38 12 0 12 0 7C0 4.8 1.8 3 4 3L34 3C36.2 3 38 4.8 38 7z"/>
    </g>
  </g>
</svg>
