<svg xmlns="http://www.w3.org/2000/svg" width="70" height="70" viewBox="0 0 70 70">
  <g fill="none" fill-rule="evenodd" transform="translate(-26 -26)">
    <rect width="360" height="136"/>
    <g transform="translate(26 26)">
      <circle cx="35" cy="35" r="35" fill="#51B200"/>
      <g transform="translate(18 18)">
        <circle cx="17.5" cy="17.5" r="17.5" stroke="#FFF" stroke-width="2"/>
        <circle cx="17.5" cy="17.5" r="13.5" opacity=".661"/>
        <path fill="#FFF" d="M16 4L19 4 19 7 16 7 16 4zM16 28L19 28 19 31 16 31 16 28zM28 16L31 16 31 19 28 19 28 16zM4 16L7 16 7 19 4 19 4 16zM19 17.7022713L19 9 16 9 16 19 16.2501636 19 16 19.2981333 23.1925333 24.0115846 25.1208961 21.7134513 19 17.7022713z"/>
      </g>
    </g>
    <circle cx="61" cy="61" r="34" stroke="#51B200" stroke-width="2"/>
  </g>
</svg>
