<svg xmlns="http://www.w3.org/2000/svg" width="70" height="70" viewBox="0 0 70 70">
  <g fill="none" fill-rule="evenodd" transform="translate(-5)">
    <circle cx="40" cy="35" r="35" fill="#51B200"/>
    <g transform="translate(0 11)">
      <path fill="#FFF" d="M16.0517239,39.9662055 L8.33442545,32.248907 C9.52824347,26.8294647 9.44185043,21.5308188 8.18142914,16.3451679 L15.4641682,9.06242882 C16.3680518,11.2672078 17.1112082,13.541284 17.7062206,15.8793862 C18.2664299,18.0811867 18.6828882,20.3082775 18.9180569,22.572638 C18.9860681,23.2253027 18.7204269,23.3550814 18.1871571,23.4143137 C16.2660609,23.6272838 14.3476145,23.8639912 12.4287265,24.0958181 C12.2381626,24.1188899 12.0509109,24.1705795 11.8667507,24.2619792 C13.6504995,24.3642492 15.4333651,24.4878163 17.2184388,24.5627995 C18.7751891,24.6284653 18.8003621,24.6051717 18.7484704,26.1210309 C18.5831176,30.952885 17.6872964,35.5685764 16.0517239,39.9662055 Z M43.3448829,48.1407446 C42.5375809,48.2927077 41.7720131,48.138748 41.009095,48.0622119 C36.9522698,47.655572 33.0398581,46.7384694 29.4655152,44.6748776 C24.4044205,41.7529718 21.4452699,37.3385004 20.2884167,31.6351159 C19.8905069,29.6724631 19.8439148,27.6951686 19.897573,25.7061163 C19.9112636,25.2018652 20.1009442,25.0490147 20.5918174,25.2085205 C24.8751994,26.5999253 28.6624087,28.7551386 31.5179967,32.3481222 C32.6856698,33.8171724 33.4083995,35.5147218 34.0743795,37.2557526 C35.6702142,41.4270831 38.2659021,44.8188543 42.0151311,47.2773282 C42.233297,47.4204175 42.4682448,47.5371074 42.6857482,47.6808622 C42.8946398,47.8186273 43.1766214,47.8496854 43.3448829,48.1407446 Z M43.4023171,1.06032567 C41.6377792,2.0184694 40.1631723,3.03695467 38.8473318,4.29724977 C36.6193019,6.43116609 34.9170341,8.92713163 33.8785381,11.8188667 C32.3511562,16.072945 29.3783151,18.9451577 25.537006,21.0508999 C23.9685524,21.9107668 22.3276713,22.6055818 20.6110505,23.1129388 C19.9539031,23.307274 19.8105937,23.236284 19.7913828,22.5634315 C19.5623969,14.6027856 22.4129062,8.2915489 29.5538635,4.31632835 C32.7989703,2.50963176 36.3390869,1.66573763 39.9918194,1.23025808 C40.7244857,1.14285159 41.4602434,1.07984793 42.1951179,1.01152001 C42.5329659,0.98001818 42.8732428,0.939864437 43.4023171,1.06032567 Z"/>
      <text fill="#FFF" font-family="Impact" font-size="22.8" font-style="condensed" font-weight="700">
        <tspan x="36.483" y="32.944">GIS</tspan>
      </text>
      <path fill="#FFF" d="M15.3858696,9.1061481 C15.3858696,9.1061481 13.4767323,4.9329144 10.4165965,2.3206033 C7.3564607,-0.291707806 3.67759746,9.95726034 3.67759746,9.95726034 C3.67759746,9.95726034 9.63451087,14.6300951 9.19955842,24.4351223 C8.76460598,34.2401495 6.41437409,38.3538835 6.41437409,38.3538835 L10.6613943,47.6497302 C10.6613943,47.6497302 15.7721637,47.3414572 18.583305,29.0247962 C17.3685088,26.6588716 13.1965324,27.4997064 13.1965324,27.4997064 L11.0011832,25.1984711 L11.7073175,20.8959543 L15.3858696,9.1061481 Z"/>
    </g>
  </g>
</svg>
