<svg xmlns="http://www.w3.org/2000/svg" xmlns:xlink="http://www.w3.org/1999/xlink" width="70" height="70" viewBox="0 0 70 70">
  <defs>
    <polygon id="service-5-a" points="42.407 .526 .098 .526 .098 35.317 42.407 35.317 42.407 .526"/>
  </defs>
  <g fill="none" fill-rule="evenodd">
    <circle cx="35" cy="35" r="35" fill="#51B200"/>
    <g transform="translate(1 12)">
      <g transform="translate(7.765 .24)">
        <mask id="service-5-b" fill="#fff">
          <use xlink:href="#service-5-a"/>
        </mask>
        <path fill="#FFF" d="M0.0982647059,34.9171433 C6.07367647,31.11831 11.7669118,27.44751 17.5144412,23.8633433 C20.8393824,21.78951 20.9556176,21.53651 19.0927941,18.1792767 C17.5519118,15.4031767 15.9857941,12.6385767 14.5382059,9.81341 C13.2137353,7.22974333 14.0847353,5.35677667 16.9455,4.77027667 C24.0106176,3.32281 31.0925588,1.95201 38.1783235,0.609576667 C40.3447353,0.19941 42.0209706,1.32794333 42.3620294,3.21624333 C42.7000294,5.08537667 41.0987353,7.23664333 38.8780294,7.67057667 C35.2640294,8.37744333 31.6423824,9.06514333 27.9993235,9.59797667 C23.2092059,10.29871 23.0692647,10.5317767 25.4375588,14.6717767 C29.0309118,20.9553767 32.5546765,27.2780767 36.1572059,33.55631 C36.8477353,34.7584433 36.7888529,35.3188767 35.2732059,35.3165767 C23.8255588,35.3027767 12.3771471,35.2989433 0.928735294,35.28361 C0.801029412,35.28361 0.672558824,35.17551 0.0982647059,34.9171433" mask="url(#service-5-b)"/>
      </g>
      <path fill="#FFF" d="M8.10825294,0.853683333 C10.3442529,0.248016667 12.2827824,1.55135 14.4010176,1.79898333 C15.8952529,1.97378333 17.3306059,2.14705 18.7499,1.68475 C22.5122529,0.45885 26.2440176,0.414383333 30.0101941,1.67861667 C31.5755471,2.20378333 33.2280765,2.27431667 34.7827235,1.67478333 C39.0719588,0.0203166667 43.3229588,0.906583333 47.5594294,1.80741667 C49.1484882,2.14551667 50.7727235,1.96458333 52.0994882,1.45781667 C56.0400176,-0.04945 59.8176647,0.89815 63.5425471,1.88101667 C65.5567824,2.41155 64.8219,4.55131667 64.6131353,5.94128333 C64.3867824,7.45161667 63.2099,6.64661667 62.3327824,6.35375 C59.1646059,5.29575 56.0377235,4.42328333 52.6890765,5.92671667 C50.1410765,7.07135 47.4424294,7.34045 44.7950176,6.00338333 C41.5350765,4.35735 38.2820176,5.19685 35.1444294,6.28245 C33.1187235,6.98318333 31.2146059,6.99851667 29.3410765,6.20195 C25.9457824,4.75755 22.6101353,4.86105 19.2385471,6.19045 C17.3948412,6.91801667 15.4823118,7.13651667 13.6470176,6.32538333 C9.99554706,4.71155 6.39531176,4.96378333 2.72013529,6.21115 C1.81854706,6.51705 0.478782353,7.28141667 0.136194118,5.40921667 C-0.292805882,3.07165 0.279194118,1.89021667 2.05178235,1.72001667 C4.09813529,1.52375 5.97319412,0.27485 8.10825294,0.853683333" opacity=".4" transform="translate(0 40.574)"/>
      <path fill="#FFF" d="M49.4328412,14.45964 C53.7924294,14.43204 56.9170176,17.5884067 56.9055471,22.0074733 C56.8948412,25.98494 53.4024294,29.3690067 49.3066647,29.3697733 C45.2414882,29.37054 42.0801941,26.17354 42.0649,22.04734 C42.0488412,17.54394 45.0174294,14.48724 49.4328412,14.45964"/>
    </g>
  </g>
</svg>
