<svg xmlns="http://www.w3.org/2000/svg" width="70" height="70" viewBox="0 0 70 70">
  <g fill="none" fill-rule="evenodd" transform="translate(-26 -26)">
    <rect width="360" height="136"/>
    <g transform="translate(26 26)">
      <circle cx="35" cy="35" r="35" fill="#51B200"/>
      <g fill="#FFF" transform="translate(6 13)">
        <path d="M1.88015011 55.9941944C1.69157655 55.9941944 1.50224819 55.9982685 1.31430362 55.9849005.550448614 55.9300278.021838806 55.4117292.000704477612 54.7043681-.0204298507 54.0024815.472452878 53.4144144 1.20586439 53.3036505 1.49407122 53.2601088 1.79108401 53.2692755 2.08419701 53.2680023 2.96466823 53.2639282 3.84627164 53.2411389 4.72535906 53.2757685 5.26139104 53.2969028 5.40455096 53.0817407 5.40203497 52.5676435 5.38605842 49.2578403 5.39750618 41.948037 5.39511599 38.6381065 5.39410959 37.2335694 5.84535267 36.7779097 7.24122473 36.7788009 10.4068452 36.7809653 13.5724657 36.7781644 16.7380861 36.7779097 16.9476682 36.7777824 17.1577535 36.7729444 17.3669582 36.7844028 18.3065552 36.8360926 18.7752844 37.323581 18.7769198 38.2837894 18.7827066 41.6148542 18.7798132 48.945919 18.7796874 52.2769838 18.7795616 53.2629097 18.7788068 53.2641829 19.725197 53.2662199 20.5427684 53.267875 21.3615979 53.2389745 22.1775339 53.2756412 22.7287876 53.3003403 22.9033974 53.100456 22.9016362 52.5443449 22.8862887 47.5797037 22.8943399 38.6149352 22.8957237 33.6501667 22.8963527 31.507331 22.8928303 29.3643681 22.9001267 27.2215324 22.9045296 25.9048426 23.3551437 25.448419 24.6342738 25.4475278 27.8417855 25.4454907 31.0499262 25.4843218 34.2566832 25.43225 36.079519 25.4025856 36.2118601 26.2121806 36.1958836 27.5223773 36.1654401 30.0205486 36.1650627 32.5177014 36.1985254 35.016 36.2246917 36.9623889 36.1568857 38.9100509 36.1576405 40.8570764 36.1586469 43.1436505 36.191229 49.4302245 36.2034316 51.7167986 36.2051928 52.0552014 36.1736171 52.3939861 36.1513505 52.7321343 36.1269454 53.1045301 36.2815531 53.2764051 36.6626 53.2722037 37.7316448 53.2606181 38.8008154 53.2643102 39.8699859 53.265456 40.1345424 53.2657106 40.2855019 53.2056181 40.2983335 52.8743449 40.3629945 51.2015556 40.3353186 49.5296574 40.3094038 47.8568681 40.2938047 46.8414051 40.3070136 41.8254329 40.3107876 40.8097153 40.3163228 39.3483958 40.3272674 37.8872037 40.3315446 36.4258843 40.3349412 35.2838704 40.3339348 34.1417292 40.330664 32.9997153 40.3265126 31.5383958 40.3121714 30.0772037 40.3135552 28.6158843 40.3144358 27.6421806 40.3052525 26.6675856 40.310536 25.6952824 40.3242482 23.2185 40.3408537 20.7424815 40.2999689 18.2654444 40.2719156 16.5721574 40.3022333 14.8773426 40.3351928 13.1838009 40.3512951 12.3526898 40.9635616 11.8536157 41.9371245 11.8499236 44.4318559 11.8402477 46.9265872 11.8453403 49.4213186 11.8444491 50.2180072 11.8441944 51.0146959 11.8373194 51.8112588 11.8445764 53.11102 11.856544 53.594971 12.3389398 53.5976128 13.6626319 53.605664 17.5877477 53.6030222 21.5127361 53.603148 25.4378519 53.6032738 33.1396343 53.6065446 44.8412894 53.5929582 52.5429444 53.5920776 53.0947269 53.7649262 53.2975394 54.317438 53.2804792 55.3856021 53.24725 56.4559049 53.2543796 57.5245723 53.2756412 58.2329497 53.2896458 58.7326256 53.6628056 58.9209475 54.262331 59.0925382 54.8085116 58.9146576 55.261625 58.5239241 55.6450972 58.195084 55.967713 57.780197 55.9962315 57.3522269 55.9957222 54.7735872 55.9925394 52.1949475 55.9945764 49.6163079 55.9945764 42.9076682 55.9947037 36.1990286 55.9945764 29.4903889 55.9945764 20.2870179 55.9945764 11.0836469 55.9945764 1.88015011 55.9941944zM36.7611945 4.93871991C36.3914695 5.0563588 36.2553544 5.28336111 36.0828832 5.45778241 27.5145484 14.1242292 18.949107 22.7936042 10.3830367 31.4624699 10.2201262 31.6273426 10.062751 31.7994722 9.88839275 31.9512315 9.31587889 32.4499236 8.59693433 32.445213 8.06731812 31.9488125 7.56801962 31.4806759 7.5149322 30.6882685 7.96403667 30.1014745 8.14279787 29.8679792 8.35816674 29.6622384 8.56548443 29.4524236 17.071171 20.8425046 25.5779898 12.2338588 34.0827957 3.62317593 34.2686017 3.43500463 34.4939087 3.2731875 34.6223501 2.95808333 34.0649322 2.8357338 33.5461348 2.91237731 33.0336273 2.89697222 32.6158469 2.88436806 32.1951731 2.92931019 31.7838085 2.81141667 31.1095228 2.61828009 30.697655 2.05796759 30.752881 1.40280556 30.8072264.758465278 31.3245143.208847222 31.9967872.18949537 33.2915164.152319444 34.5876294.166833333 35.8832392.157412037 36.490348.153083333 37.0984631.162759259 37.7043139.131439815 38.8536188.0719837963 39.5111731.646173611 39.5196017 1.7976088 39.5338171 3.70643981 39.5455164 5.61578009 39.5129343 7.52410185 39.4910452 8.80132407 38.4840196 9.47723843 37.4962414 8.93831481 37.1146913 8.73015509 36.9184439 8.40562963 36.8389386 7.98498148 36.7273544 7.3956412 36.7717616 6.8009537 36.7624525 6.20817593 36.7560367 5.80891667 36.7611945 5.40940278 36.7611945 4.93871991"/>
      </g>
    </g>
    <circle cx="61" cy="61" r="34" stroke="#51B200" stroke-width="2"/>
  </g>
</svg>
